<svg id="Layer_1" data-name="Layer 1" xmlns="http://www.w3.org/2000/svg" viewBox="0 0 1263 97"><defs><style>.cls-1{fill:#b55639;}</style></defs><title>Artboard 1</title><path class="cls-1" d="M.07,69.92l7.74-.86c1,8.31,2.15,9.83,5.44,17.43a41.47,41.47,0,0,0,17.19,3.3c11.18,0,18.91-6.16,18.91-16.76,0-25.93-47.85-16-47.85-49C1.51,8.69,13-1.48,32.88-1.48c15.47,0,28.65,8.31,28.65,19.34,0,6.45-2.58,9.74-7.74,9.74s-7.31-2.15-8.88-4.44a9.82,9.82,0,0,0,3.29-7.74c0-4.87-5.3-9-15.47-9-11,0-18.05,4.87-18.05,14.47,0,24.07,48.71,15,48.71,49.57,0,17.91-14.47,27.22-35,27.22-11.6,0-24.36-5.16-28.37-8Z"/><path class="cls-1" d="M77.59,90.78c5-.57,11.46-2.15,13.9-4V9.41C87.19,7,81.74,6,76.73,5.4l.72-5.73h73.07l1.29,23.21a13.5,13.5,0,0,1-4.3.72,12.27,12.27,0,0,1-2.29-.14A37.15,37.15,0,0,0,138,7.83h-33V43.5l9.18-1.58c5.3-.43,7.74-6.73,8.6-10.17h4.87V61.84h-4.87c-.72-3.58-2.15-10.75-8.74-11.18l-9-1.58V86.77c3.87,2.44,9.74,3.44,14.76,4l-.71,5.73H76.73Z"/><path class="cls-1" d="M275.17,74.31c-8,22.06-28.65,23.21-32.81,23.21-30.52,0-43.84-15.47-43.84-49.14,0-32.52,14.61-49.57,43.84-49.57,14,0,30.95,5.59,30.95,20.06,0,7.16-4.3,12-8.88,12-4.3,0-7.88-2.44-8.88-6a13.63,13.63,0,0,0,2.87-7.74c0-7.16-6.73-10.46-15.9-10.46-20.49,0-28.8,12.47-28.8,41.69s7.88,41.26,28.66,41.26c4.15,0,19.63-1,25.65-17.91Z"/><path class="cls-1" d="M283.64,60.27c0-24.21,10.74-37.25,31.95-37.25s32,13,32,37.25-10.74,37.39-32,37.39S283.64,84.48,283.64,60.27Zm50.29,0c0-21.35-5.44-30.09-18.34-30.09s-18.19,8.74-18.19,30.09,5.3,30.23,18.19,30.23S333.92,81.61,333.92,60.27Z"/><path class="cls-1" d="M358.15,90.93c4.58-.72,7-1.58,10.17-3.87V42.93c0-7.74-2.86-9.89-10.75-10.17l.43-4.58c6.59-1.15,13-3.44,18.91-5.16l2.72,1.43,1.43,9.6c4.87-6.73,12.46-11,20.34-11,14.9,0,23.78,7.88,23.78,21.35V87.06c1.86,1.43,6.3,3.29,10.74,4.15l-.57,5.3h-34l.43-5.3A22.24,22.24,0,0,0,412,87.06V45.8c0-10.46-4.44-15.33-13.18-15.33-7,0-14.18,5.3-17.34,12.89v43.7a27.63,27.63,0,0,0,10.75,4.15l-.57,5.3h-34.1Z"/><path class="cls-1" d="M452.86,32H440.25v-4.3C450.71,24.16,457,17.86,460,9h6.16V24h17.48v8H466V79.75c0,6.59.57,10.6,7.16,10.6a17.24,17.24,0,0,0,9.6-3l3,4.58c-2.15,1.72-7,5.73-16.48,5.73-13.18,0-16.48-5.87-16.48-19.05Z"/><path class="cls-1" d="M508.17,61.41c0,15.76,1.57,29.66,18.48,29.66a22.28,22.28,0,0,0,18.05-8.45l4.87,4.87c-4.3,5-11.17,10.17-23.5,10.17C501.86,97.66,494,83.19,494,59.84,494,37.49,504.44,23,525.5,23s26.79,12.32,27.37,32l-3.15,4.15H508.17ZM539,52.24c0-15.33-3-22.92-14-22.92-11.89,0-16.48,10.17-16.76,24.07C520.49,53.25,539,52.24,539,52.24Z"/><path class="cls-1" d="M562.33,90.93c4.58-.72,7-1.58,10.17-3.87V42.93c0-7.74-2.87-9.89-10.75-10.17l.43-4.58c6.59-1.15,13-3.44,18.91-5.16l2.72,1.43,1.43,9.6c4.87-6.73,12.46-11,20.34-11,14.9,0,23.78,7.88,23.78,21.35V87.06c1.86,1.43,6.3,3.29,10.74,4.15l-.57,5.3h-34l.43-5.3a22.24,22.24,0,0,0,10.17-4.15V45.8c0-10.46-4.44-15.33-13.18-15.33-7,0-14.18,5.3-17.33,12.89v43.7a27.6,27.6,0,0,0,10.74,4.15l-.57,5.3h-34.1Z"/><path class="cls-1" d="M657,32H644.43v-4.3C654.89,24.16,661.2,17.86,664.2,9h6.16V24h17.48v8H670.22V79.75c0,6.59.57,10.6,7.16,10.6a17.24,17.24,0,0,0,9.6-3l3,4.58c-2.15,1.72-7,5.73-16.48,5.73-13.18,0-16.48-5.87-16.48-19.05Z"/><path class="cls-1" d="M811.35,74.31c-8,22.06-28.65,23.21-32.81,23.21C748,97.52,734.7,82,734.7,48.38c0-32.52,14.61-49.57,43.84-49.57,14,0,30.95,5.59,30.95,20.06,0,7.16-4.3,12-8.88,12-4.3,0-7.88-2.44-8.88-6a13.63,13.63,0,0,0,2.87-7.74c0-7.16-6.73-10.46-15.9-10.46-20.49,0-28.8,12.47-28.8,41.69s7.88,41.26,28.66,41.26c4.15,0,19.63-1,25.65-17.91Z"/><path class="cls-1" d="M819.82,90.93c4.58-.72,7-1.58,10.17-3.87V42.93c0-7.74-2.86-9.89-10.74-10.17l.43-4.58c6.59-1.15,13-3.44,18.91-5.16l2.72,1.43,1.57,10.75c4.3-6.45,11-12.18,18.48-12.18,6.88,0,13.75,4,13.75,12.61,0,4.73-2.86,9.6-8.16,9.6-3.44,0-7-1.72-7.88-4.73a8.17,8.17,0,0,0,1.58-4.3c0-3-1.43-4.73-4.44-4.73-5.73,0-13,10.46-13,20.49v35.1c2.86,1.86,7.16,3.29,12.18,4.15l-.57,5.3H819.25Z"/><path class="cls-1" d="M896.61,61.41c0,15.76,1.57,29.66,18.48,29.66a22.28,22.28,0,0,0,18.05-8.45L938,87.49c-4.3,5-11.17,10.17-23.5,10.17-24.21,0-32.09-14.47-32.09-37.82C882.43,37.49,892.89,23,914,23s26.79,12.32,27.37,32l-3.15,4.15H896.61Zm30.8-9.17c0-15.33-3-22.92-14-22.92-11.89,0-16.48,10.17-16.76,24.07C908.94,53.25,927.42,52.24,927.42,52.24Z"/><path class="cls-1" d="M993.33,89.64c-6.45,6.16-13.18,8-21.06,8-12.18,0-19.34-6.59-19.34-17.77,0-13.32,9.74-21.2,27.8-22.49l12.18-.86V43.93c0-10.32-3.87-14.76-12.89-14.76-7.74,0-12.18,2.58-12.18,7,0,2.58,1.72,4.58,4.73,5.73,0,4.73-3.15,7.31-8.88,7.31-5.3,0-8.88-3.58-8.88-8.88C954.79,29.75,964.53,23,980,23c16.33,0,26.08,7.74,26.08,20.92V87.06c1.86,1.43,6.3,3.29,10.75,4.15l-.57,5.3H994.91Zm-.43-26.79-11.6,1c-9.17.86-14.76,6.45-14.76,14.76s3.29,12.61,9.74,12.61c5.59,0,10.32-2.58,16.62-8.88Z"/><path class="cls-1" d="M1033.17,32h-12.61v-4.3c10.46-3.58,16.76-9.89,19.77-18.77h6.16V24H1064v8h-17.62V79.75c0,6.59.57,10.6,7.16,10.6a17.24,17.24,0,0,0,9.6-3l3,4.58c-2.15,1.72-7,5.73-16.48,5.73-13.18,0-16.48-5.87-16.48-19.05Z"/><path class="cls-1" d="M1074.15,60.27c0-24.21,10.74-37.25,32-37.25s31.95,13,31.95,37.25-10.74,37.39-31.95,37.39S1074.15,84.48,1074.15,60.27Zm50.29,0c0-21.35-5.44-30.09-18.34-30.09s-18.2,8.74-18.2,30.09,5.3,30.23,18.2,30.23S1124.44,81.61,1124.44,60.27Z"/><path class="cls-1" d="M1149.23,90.93c4.58-.72,7-1.58,10.17-3.87V42.93c0-7.74-2.86-9.89-10.74-10.17l.43-4.58c6.59-1.15,13-3.44,18.91-5.16l2.72,1.43,1.57,10.75c4.3-6.45,11-12.18,18.48-12.18,6.88,0,13.75,4,13.75,12.61,0,4.73-2.86,9.6-8.16,9.6-3.44,0-7-1.72-7.88-4.73a8.17,8.17,0,0,0,1.58-4.3c0-3-1.43-4.73-4.44-4.73-5.73,0-13,10.46-13,20.49v35.1c2.86,1.86,7.16,3.29,12.18,4.15l-.57,5.3h-35.53Z"/><path class="cls-1" d="M1214,72.45l8.31-1c.71,9,1.72,13.18,4.15,17.62a40.06,40.06,0,0,0,11.46,1.58c8.31,0,13.9-5.44,13.9-12,0-19.05-37.68-8.45-37.68-36.25,0-11.75,10-19.2,25.5-19.2,13,0,23.5,6.73,23.5,15,0,5.3-2.43,8-7.16,8-3.72,0-6.3-1.29-8.16-4.15a7.05,7.05,0,0,0,2.43-5.59c0-4.3-5.16-7.16-11.6-7.16-7.88,0-12.9,4-12.9,10.32,0,19.34,38.25,10.17,38.25,35.82,0,13.9-10,21.92-27.37,21.92-7.16,0-18.05-2.87-22.64-5.87Z"/></svg>